# xmcd CD database file
#
# Track frame offsets:
#	150
#	19377
#	32210
#	53155
#	68232
#	97202
#	117355
#	124842
#	136937
#	151675
#	175505
#
# Disc length: 2469 seconds
#
# Revision: 0
# Processed by: cddbd v1.5.1PL0 Copyright (c) Steve Scherf et al.
# Submitted via: CDex 1.51
#
DISCID=9309a30b
DTITLE=スマイルレンジャー - 「ハタチノキモチ」
DYEAR=2003
DGENRE=Rock
TTITLE0=LOVE LOVE レボリューション
TTITLE1=限りなき挑戦
TTITLE2=悲劇のヒーロー
TTITLE3=定位置
TTITLE4=愛の姿
TTITLE5=サイクリングロード
TTITLE6=Good Morning - This Morning
TTITLE7=Woh oh oh〜今を叫ぶ〜
TTITLE8=手紙
TTITLE9=僕を信じて
TTITLE10=高速道路2000
EXTD=YEAR: 2003
EXTT0=
EXTT1=
EXTT2=
EXTT3=
EXTT4=
EXTT5=
EXTT6=
EXTT7=
EXTT8=
EXTT9=
EXTT10=
PLAYORDER=
